<svg width="190" height="162" viewBox="0 0 190 162" fill="none" xmlns="http://www.w3.org/2000/svg">
<path d="M159.41 37.2127H123.344C116.564 37.2127 110.255 33.6344 106.771 27.796L100.65 17.5319C97.1656 11.6936 90.8563 8.11523 84.0763 8.11523H27.2938C16.5588 8.11523 7.89551 16.7785 7.89551 27.5135V56.5167L7.89551 59.6228C7.8955 60.699 7.89551 58.6826 7.89551 59.8126V130.908C7.89551 143.433 18.0655 153.603 30.5897 153.603H159.41C171.934 153.603 182.104 143.433 182.104 130.908V59.8126C182.104 47.3826 171.934 37.2127 159.41 37.2127Z" stroke="#707070" stroke-width="15" stroke-linecap="round" stroke-linejoin="round"/>
<path d="M159.41 37.2139H7.89551V131.098C7.89551 143.622 18.0655 153.792 30.5897 153.792H159.41C171.934 153.792 182.104 143.622 182.104 131.098V60.002C182.104 47.3837 171.934 37.2139 159.41 37.2139Z" stroke="#707070" stroke-width="15" stroke-linecap="round" stroke-linejoin="round"/>
</svg>
