<svg width="226" height="226" viewBox="0 0 226 226" fill="none" xmlns="http://www.w3.org/2000/svg">
<path d="M177.41 69.2127H141.344C134.564 69.2127 128.255 65.6344 124.771 59.796L118.65 49.5319C115.166 43.6936 108.856 40.1152 102.076 40.1152H45.2938C34.5588 40.1152 25.8955 48.7785 25.8955 59.5135V88.5167L25.8955 91.6228C25.8955 92.699 25.8955 90.6826 25.8955 91.8126V162.908C25.8955 175.433 36.0655 185.603 48.5897 185.603H177.41C189.934 185.603 200.104 175.433 200.104 162.908V91.8126C200.104 79.3826 189.934 69.2127 177.41 69.2127Z" stroke="#707070" stroke-width="15" stroke-linecap="round" stroke-linejoin="round"/>
<path d="M177.41 69.2139H25.8955V163.098C25.8955 175.622 36.0655 185.792 48.5897 185.792H177.41C189.934 185.792 200.104 175.622 200.104 163.098V92.002C200.104 79.3837 189.934 69.2139 177.41 69.2139Z" stroke="#707070" stroke-width="15" stroke-linecap="round" stroke-linejoin="round"/>
</svg>
