<svg width="130" height="130" viewBox="0 0 130 130" fill="none" xmlns="http://www.w3.org/2000/svg">
<circle cx="45" cy="48" r="9" fill="#33CC99"/>
<circle cx="85" cy="48" r="9" fill="#33CC99"/>
<circle cx="65" cy="65" r="60" stroke="#707070" stroke-width="10"/>
<path d="M64.9412 73.6621C70.6644 73.6546 75.9371 74.4319 80.7594 75.9941C85.5665 77.5406 90.0149 79.8562 94.1047 82.9409L94.1154 90.9641C92.5988 89.7583 90.7457 88.6471 88.5561 87.6304C86.3665 86.598 83.9628 85.7071 81.3451 84.9577C78.7274 84.1925 76.0181 83.6001 73.2172 83.1803C70.4162 82.7448 67.6615 82.5288 64.953 82.5324C61.3263 82.5372 57.6542 82.9185 53.9367 83.6763C50.2192 84.4185 46.7698 85.4348 43.5886 86.7252C40.4074 88 37.8078 89.4386 35.79 91.0413L35.7794 83.018C39.8611 79.9226 44.311 77.5952 49.1293 76.0359C53.9322 74.461 59.2028 73.6697 64.9412 73.6621Z" fill="#33CC99"/>
</svg>
