<svg width="20" height="20" viewBox="0 0 20 20" fill="none" xmlns="http://www.w3.org/2000/svg">
<g clip-path="url(#clip0_102_47)">
<path d="M10 20C15.5228 20 20 15.5228 20 10C20 4.47715 15.5228 0 10 0C4.47715 0 0 4.47715 0 10C0 15.5228 4.47715 20 10 20Z" fill="#33CC99"/>
<path d="M13.995 9.32161C13.5678 9.32161 13.1658 9.39699 12.7889 9.54774L12.0603 8.29146C12.8141 7.68845 13.2915 6.7588 13.2915 5.70352C13.2915 3.89448 11.809 2.21106 10 2.21106C8.19095 2.21106 6.70854 3.86935 6.70854 5.70352C6.70854 6.73367 7.18592 7.66332 7.93969 8.29146L7.21105 9.54774C6.83417 9.39699 6.43216 9.32161 6.00502 9.32161C4.19597 9.32161 2.71356 10.804 2.71356 12.6131C2.71356 14.4221 4.19597 15.9045 6.00502 15.9045C7.66331 15.9045 9.0201 14.6734 9.27135 13.0905H10.7035C10.9548 14.6734 12.3116 15.9045 13.9698 15.9045C15.7789 15.9045 17.2613 14.4221 17.2613 12.6131C17.2864 10.804 15.804 9.32161 13.995 9.32161ZM7.68844 5.70352C7.68844 4.42212 8.71859 3.39196 10 3.39196C11.2814 3.39196 12.3116 4.42212 12.3116 5.70352C12.3116 6.98493 11.2814 8.01508 10 8.01508C8.71859 8.01508 7.68844 6.98493 7.68844 5.70352ZM6.00502 14.9246C4.72361 14.9246 3.69346 13.8945 3.69346 12.6131C3.69346 11.3317 4.72361 10.3015 6.00502 10.3015C7.28643 10.3015 8.31658 11.3317 8.31658 12.6131C8.31658 13.8945 7.28643 14.9246 6.00502 14.9246ZM10.7286 12.1106H9.29648C9.17085 11.2814 8.71859 10.5276 8.09045 10.0251L8.81909 8.76885C9.19597 8.9196 9.59799 8.99498 10.0251 8.99498C10.4523 8.99498 10.8543 8.9196 11.2312 8.76885L11.9598 10.0251C11.2814 10.5528 10.8543 11.2814 10.7286 12.1106ZM13.995 14.9246C12.7136 14.9246 11.6834 13.8945 11.6834 12.6131C11.6834 11.3317 12.7136 10.3015 13.995 10.3015C15.2764 10.3015 16.3065 11.3317 16.3065 12.6131C16.3065 13.8945 15.2513 14.9246 13.995 14.9246Z" fill="white"/>
<path d="M6.00503 13.6181C6.56009 13.6181 7.01005 13.1681 7.01005 12.6131C7.01005 12.058 6.56009 11.608 6.00503 11.608C5.44997 11.608 5 12.058 5 12.6131C5 13.1681 5.44997 13.6181 6.00503 13.6181Z" fill="white"/>
<path d="M13.995 13.6181C14.55 13.6181 15 13.1681 15 12.6131C15 12.058 14.55 11.608 13.995 11.608C13.4399 11.608 12.9899 12.058 12.9899 12.6131C12.9899 13.1681 13.4399 13.6181 13.995 13.6181Z" fill="white"/>
<path d="M10.2307 6.68088C10.7705 6.55188 11.1036 6.00968 10.9746 5.46982C10.8456 4.92997 10.3034 4.59691 9.76353 4.7259C9.22368 4.8549 8.89061 5.39711 9.01961 5.93696C9.14861 6.47681 9.69081 6.80988 10.2307 6.68088Z" fill="white"/>
</g>
<defs>
<clipPath id="clip0_102_47">
<rect width="20" height="20" fill="white"/>
</clipPath>
</defs>
</svg>
